<svg xmlns="http://www.w3.org/2000/svg" version="1.1" xmlns:xlink="http://www.w3.org/1999/xlink" xmlns:svgjs="http://svgjs.dev/svgjs" width="1500" height="553" viewBox="0 0 1500 553"><g transform="matrix(1,0,0,1,-0.9090909090909918,0.8262861212542703)"><svg viewBox="0 0 396 146" data-background-color="#ffffff" preserveAspectRatio="xMidYMid meet" height="553" width="1500" xmlns="http://www.w3.org/2000/svg" xmlns:xlink="http://www.w3.org/1999/xlink"><g id="tight-bounds" transform="matrix(1,0,0,1,0.2400000000000091,-0.21815148951739616)"><svg viewBox="0 0 395.52 146.4363029790348" height="146.4363029790348" width="395.52"><g><svg viewBox="0 0 395.52 146.4363029790348" height="146.4363029790348" width="395.52"><g transform="matrix(1,0,0,1,0,90.50350997415839)"><svg viewBox="0 0 395.52 55.932793004876395" height="55.932793004876395" width="395.52"><g id="textblocktransform"><svg viewBox="0 0 395.52 55.932793004876395" height="55.932793004876395" width="395.52" id="textblock"><g><svg viewBox="0 0 395.52 55.932793004876395" height="55.932793004876395" width="395.52"><g transform="matrix(1,0,0,1,0,0)"><svg width="395.52" viewBox="1.9 -41.5 297.33000000000004 42.05" height="55.932793004876395" data-palette-color="#333333"><path d="M21.45 0L1.9 0 1.9-1.9Q3.8-1.95 4.98-2.18 6.15-2.4 6.8-3.03 7.45-3.65 7.68-4.73 7.9-5.8 7.9-7.6L7.9-7.6 7.9-30.9Q7.9-32.65 7.73-33.73 7.55-34.8 7.03-35.43 6.5-36.05 5.5-36.27 4.5-36.5 2.9-36.6L2.9-36.6 2.9-38.5 20.45-38.5Q24.95-38.5 28.78-37 32.6-35.5 35.38-32.85 38.15-30.2 39.7-26.55 41.25-22.9 41.25-18.6L41.25-18.6Q41.25-14.5 39.8-11.08 38.35-7.65 35.73-5.2 33.1-2.75 29.45-1.38 25.8 0 21.45 0L21.45 0ZM20.35-36.05L14-36.05Q13.15-36.05 13.15-35.2L13.15-35.2 13.15-8.15Q13.15-2.45 20.6-2.45L20.6-2.45Q27.45-2.45 31.1-6.53 34.75-10.6 34.75-18.5L34.75-18.5Q34.75-22.65 33.75-25.9 32.75-29.15 30.88-31.4 29-33.65 26.35-34.85 23.7-36.05 20.35-36.05L20.35-36.05ZM68.75-6.05L70.3-4.65Q66.05 0.5 59.75 0.5L59.75 0.5Q56.8 0.5 54.4-0.48 52-1.45 50.27-3.23 48.55-5 47.6-7.48 46.65-9.95 46.65-12.95L46.65-12.95Q46.65-16 47.65-18.6 48.65-21.2 50.47-23.05 52.3-24.9 54.82-25.95 57.35-27 60.35-27L60.35-27Q65.2-27 67.85-24.38 70.5-21.75 70.5-16.85L70.5-16.85Q70.5-16.15 70.22-16 69.95-15.85 68.95-15.85L68.95-15.85 52.5-15.85Q52.4-15.45 52.35-14.88 52.3-14.3 52.3-13.6L52.3-13.6Q52.3-11 52.92-8.88 53.55-6.75 54.72-5.25 55.9-3.75 57.52-2.93 59.15-2.1 61.15-2.1L61.15-2.1Q63.25-2.1 65.05-3.03 66.85-3.95 68.75-6.05L68.75-6.05ZM52.85-18.15L62.05-18.15Q63.05-18.15 63.65-18.2 64.25-18.25 64.55-18.4 64.85-18.55 64.95-18.82 65.05-19.1 65.05-19.55L65.05-19.55Q65.05-21.85 63.57-23.23 62.1-24.6 59.55-24.6L59.55-24.6Q54.15-24.6 52.85-18.15L52.85-18.15ZM83.3-41.5L83.3-7.8Q83.3-5.9 83.45-4.75 83.6-3.6 84.07-2.95 84.55-2.3 85.42-2.05 86.3-1.8 87.75-1.75L87.75-1.75 87.75 0 73.95 0 73.95-1.75Q75.45-1.8 76.35-2.08 77.25-2.35 77.77-2.95 78.3-3.55 78.47-4.63 78.65-5.7 78.65-7.45L78.65-7.45 78.65-29Q78.65-31.7 78.57-33.52 78.5-35.35 78.35-36L78.35-36Q78.1-37.15 77.17-37.55 76.25-37.95 73.85-37.95L73.85-37.95 73.85-39.65 83.3-41.5ZM100.49-27L100.49-7.95Q100.49-6 100.67-4.83 100.84-3.65 101.34-2.98 101.84-2.3 102.74-2.05 103.64-1.8 105.14-1.75L105.14-1.75 105.14 0 90.79 0 90.79-1.75Q92.29-1.8 93.24-2.08 94.19-2.35 94.72-2.98 95.24-3.6 95.42-4.73 95.59-5.85 95.59-7.6L95.59-7.6 95.59-14Q95.59-16.9 95.52-18.78 95.44-20.65 95.24-21.35L95.24-21.35Q94.99-22.5 94.09-22.93 93.19-23.35 90.69-23.35L90.69-23.35 90.69-25.1 100.49-27ZM94.74-37.15L94.74-37.15Q94.74-38.45 95.64-39.35 96.54-40.25 97.84-40.25L97.84-40.25Q99.14-40.25 100.04-39.35 100.94-38.45 100.94-37.15L100.94-37.15Q100.94-35.85 100.04-34.95 99.14-34.05 97.84-34.05L97.84-34.05Q96.54-34.05 95.64-34.95 94.74-35.85 94.74-37.15ZM119.54 0.55L111.09-20.3Q110.49-21.8 110.02-22.68 109.54-23.55 108.99-24 108.44-24.45 107.77-24.58 107.09-24.7 106.14-24.75L106.14-24.75 106.14-26.5 119.39-26.5 119.39-24.75Q118.39-24.7 117.74-24.65 117.09-24.6 116.72-24.43 116.34-24.25 116.19-23.93 116.04-23.6 116.04-23L116.04-23Q116.04-22.15 116.27-21.4 116.49-20.65 116.74-19.9L116.74-19.9 122.04-5.4 122.24-5.4 126.79-16.15Q127.84-18.65 128.29-20.15 128.74-21.65 128.74-22.8L128.74-22.8Q128.74-23.95 128.14-24.35 127.54-24.75 125.54-24.75L125.54-24.75 125.54-26.5 135.49-26.5 135.49-24.75Q134.69-24.75 134.04-24.35 133.39-23.95 132.89-23.35L132.89-23.35Q132.49-22.8 132.07-21.88 131.64-20.95 131.22-19.95 130.79-18.95 130.44-17.98 130.09-17 129.79-16.4L129.79-16.4 122.44 0.55 119.54 0.55ZM159.84-6.05L161.39-4.65Q157.14 0.5 150.84 0.5L150.84 0.5Q147.89 0.5 145.49-0.48 143.09-1.45 141.36-3.23 139.64-5 138.69-7.48 137.74-9.95 137.74-12.95L137.74-12.95Q137.74-16 138.74-18.6 139.74-21.2 141.56-23.05 143.39-24.9 145.91-25.95 148.44-27 151.44-27L151.44-27Q156.29-27 158.94-24.38 161.59-21.75 161.59-16.85L161.59-16.85Q161.59-16.15 161.31-16 161.04-15.85 160.04-15.85L160.04-15.85 143.59-15.85Q143.49-15.45 143.44-14.88 143.39-14.3 143.39-13.6L143.39-13.6Q143.39-11 144.01-8.88 144.64-6.75 145.81-5.25 146.99-3.75 148.61-2.93 150.24-2.1 152.24-2.1L152.24-2.1Q154.34-2.1 156.14-3.03 157.94-3.95 159.84-6.05L159.84-6.05ZM143.94-18.15L153.14-18.15Q154.14-18.15 154.74-18.2 155.34-18.25 155.64-18.4 155.94-18.55 156.04-18.82 156.14-19.1 156.14-19.55L156.14-19.55Q156.14-21.85 154.66-23.23 153.19-24.6 150.64-24.6L150.64-24.6Q145.24-24.6 143.94-18.15L143.94-18.15ZM175.04-9.65L175.04-7.95Q175.04-5.9 175.14-4.7 175.24-3.5 175.66-2.88 176.09-2.25 176.89-2.05 177.69-1.85 179.14-1.75L179.14-1.75 179.14 0 165.84 0 165.84-1.75Q167.29-1.8 168.14-2.02 168.99-2.25 169.44-2.85 169.89-3.45 170.01-4.58 170.14-5.7 170.14-7.6L170.14-7.6 170.14-13.45Q170.14-16.85 170.06-18.75 169.99-20.65 169.56-21.55 169.14-22.45 168.24-22.63 167.34-22.8 165.74-22.8L165.74-22.8 165.74-24.55 174.49-26.45 175.19-20.25 175.39-20.25Q176.04-21.75 177.01-23 177.99-24.25 179.14-25.13 180.29-26 181.54-26.5 182.79-27 184.09-27L184.09-27Q185.69-27 186.61-26.23 187.54-25.45 187.54-24.15L187.54-24.15Q187.54-22.95 186.79-22.28 186.04-21.6 184.64-21.6L184.64-21.6Q183.84-21.6 183.29-21.8 182.74-22 182.31-22.23 181.89-22.45 181.51-22.65 181.14-22.85 180.69-22.85L180.69-22.85Q179.34-22.85 177.99-21.13 176.64-19.4 175.89-16.75L175.89-16.75Q175.49-15.3 175.26-13.48 175.04-11.65 175.04-9.65L175.04-9.65ZM199.23-35.5L199.23-21.15Q201.93-21.15 203.76-21.48 205.58-21.8 206.66-22.5 207.73-23.2 208.21-24.3 208.68-25.4 208.68-26.9L208.68-26.9 210.43-26.9 210.43-13.25 208.68-13.25Q208.68-14.75 208.26-15.85 207.83-16.95 206.76-17.68 205.68-18.4 203.86-18.78 202.03-19.15 199.23-19.15L199.23-19.15 199.23-7.85Q199.23-6.2 199.63-5.13 200.03-4.05 201.01-3.38 201.98-2.7 203.58-2.43 205.18-2.15 207.53-2.15L207.53-2.15Q210.18-2.15 212.03-2.53 213.88-2.9 215.13-3.8 216.38-4.7 217.13-6.18 217.88-7.65 218.38-9.85L218.38-9.85 220.28-9.85 219.53 0 188.48 0 188.48-1.9Q190.23-1.95 191.31-2.2 192.38-2.45 192.98-3.05 193.58-3.65 193.78-4.75 193.98-5.85 193.98-7.6L193.98-7.6 193.98-30.9Q193.98-32.65 193.81-33.73 193.63-34.8 193.11-35.43 192.58-36.05 191.58-36.27 190.58-36.5 188.98-36.6L188.98-36.6 188.98-38.5 217.88-38.5 218.33-29.7 216.58-29.7Q216.28-31.7 215.61-32.98 214.93-34.25 213.76-35 212.58-35.75 210.78-36.05 208.98-36.35 206.43-36.35L206.43-36.35 200.08-36.35Q199.23-36.35 199.23-35.5L199.23-35.5ZM239.98-10.85L239.98-14.8Q237.13-13.7 235.16-12.65 233.18-11.6 231.98-10.55 230.78-9.5 230.26-8.45 229.73-7.4 229.73-6.3L229.73-6.3Q229.73-4.65 230.83-3.6 231.93-2.55 233.73-2.55L233.73-2.55Q235.03-2.55 236.16-3.2 237.28-3.85 238.13-4.98 238.98-6.1 239.48-7.63 239.98-9.15 239.98-10.85L239.98-10.85ZM232.78-13.8L239.98-16.95 239.98-19Q239.98-25.1 234.78-25.1L234.78-25.1Q233.93-25.1 233.33-24.95 232.73-24.8 232.33-24.45 231.93-24.1 231.61-23.45 231.28-22.8 230.98-21.85L230.98-21.85Q230.43-20.4 229.91-19.93 229.38-19.45 228.38-19.45L228.38-19.45Q225.88-19.45 225.88-21.95L225.88-21.95Q225.88-24.35 228.43-25.68 230.98-27 235.68-27L235.68-27Q240.68-27 242.78-25.23 244.88-23.45 244.88-19.2L244.88-19.2 244.88-8Q244.88-2.3 247.13-2.3L247.13-2.3Q247.83-2.3 248.48-2.48 249.13-2.65 249.58-3.4L249.58-3.4 250.28-2.2Q249.68-1.05 248.08-0.28 246.48 0.5 244.73 0.5L244.73 0.5Q242.53 0.5 241.46-0.9 240.38-2.3 240.38-4.85L240.38-4.85 240.13-4.85Q238.83-2.4 236.53-0.98 234.23 0.45 231.43 0.45L231.43 0.45Q228.28 0.45 226.48-1.15 224.68-2.75 224.68-5.45L224.68-5.45Q224.68-6.65 225.11-7.75 225.53-8.85 226.48-9.85 227.43-10.85 228.98-11.83 230.53-12.8 232.78-13.8L232.78-13.8ZM255.53-1.75L254.53 0 253.43 0 253.43-8.6 254.68-8.6Q256.63-1.55 261.78-1.55L261.78-1.55Q263.78-1.55 264.95-2.53 266.13-3.5 266.13-5.5L266.13-5.5Q266.13-6.25 265.9-6.78 265.68-7.3 265.05-7.88 264.43-8.45 263.3-9.2 262.18-9.95 260.33-11.1L260.33-11.1Q258.63-12.15 257.38-13.05 256.13-13.95 255.28-14.88 254.43-15.8 254-16.85 253.58-17.9 253.58-19.3L253.58-19.3Q253.58-21 254.15-22.43 254.73-23.85 255.73-24.85 256.73-25.85 258.08-26.43 259.43-27 261.03-27L261.03-27Q262.38-27 263.83-26.58 265.28-26.15 266.38-25.45L266.38-25.45 267.38-26.5 268.33-26.5 268.33-19.3 267.03-19.3Q265.93-22.35 264.63-23.65 263.33-24.95 261.43-24.95L261.43-24.95Q259.73-24.95 258.7-24.05 257.68-23.15 257.68-21.55L257.68-21.55Q257.68-20.7 257.95-20.08 258.23-19.45 258.83-18.85 259.43-18.25 260.35-17.63 261.28-17 262.58-16.2L262.58-16.2Q264.73-14.85 266.25-13.8 267.78-12.75 268.73-11.73 269.68-10.7 270.13-9.6 270.58-8.5 270.58-7.1L270.58-7.1Q270.58-3.55 268.28-1.53 265.98 0.5 262.23 0.5L262.23 0.5Q258.33 0.5 255.53-1.75L255.53-1.75ZM297.48-6.05L299.03-4.65Q294.78 0.5 288.48 0.5L288.48 0.5Q285.53 0.5 283.13-0.48 280.73-1.45 279-3.23 277.28-5 276.32-7.48 275.38-9.95 275.38-12.95L275.38-12.95Q275.38-16 276.38-18.6 277.38-21.2 279.2-23.05 281.03-24.9 283.55-25.95 286.07-27 289.07-27L289.07-27Q293.93-27 296.57-24.38 299.23-21.75 299.23-16.85L299.23-16.85Q299.23-16.15 298.95-16 298.68-15.85 297.68-15.85L297.68-15.85 281.23-15.85Q281.13-15.45 281.07-14.88 281.03-14.3 281.03-13.6L281.03-13.6Q281.03-11 281.65-8.88 282.28-6.75 283.45-5.25 284.63-3.75 286.25-2.93 287.88-2.1 289.88-2.1L289.88-2.1Q291.98-2.1 293.78-3.03 295.57-3.95 297.48-6.05L297.48-6.05ZM281.57-18.15L290.78-18.15Q291.78-18.15 292.38-18.2 292.98-18.25 293.28-18.4 293.57-18.55 293.68-18.82 293.78-19.1 293.78-19.55L293.78-19.55Q293.78-21.85 292.3-23.23 290.82-24.6 288.28-24.6L288.28-24.6Q282.88-24.6 281.57-18.15L281.57-18.15Z" opacity="1" transform="matrix(1,0,0,1,0,0)" fill="#333333" class="wordmark-text-0" data-fill-palette-color="primary" id="text-0"></path></svg></g></svg></g></svg></g></svg></g><g transform="matrix(1,0,0,1,159.1104400336304,0)"><svg viewBox="0 0 77.29911993273919 77.29911993273919" height="77.29911993273919" width="77.29911993273919"><g><svg></svg></g><g id="icon-0"><svg viewBox="0 0 77.29911993273919 77.29911993273919" height="77.29911993273919" width="77.29911993273919"><g><path transform="scale(0.77299,0.77299)" d="M30 100c-16.569 0-30-13.431-30-30v-40c0-16.569 13.431-30 30-30h40c16.569 0 30 13.431 30 30v40c0 16.569-13.431 30-30 30z" fill="#01ff70" fill-rule="nonzero" stroke="none" stroke-width="1" stroke-linecap="butt" stroke-linejoin="miter" stroke-miterlimit="10" stroke-dasharray="" stroke-dashoffset="0" font-family="none" font-weight="none" font-size="none" text-anchor="none" style="mix-blend-mode: normal" data-fill-palette-color="accent"></path></g><g transform="matrix(1,0,0,1,15.459823986547839,19.998815402114843)"><svg viewBox="0 0 46.37947195964351 37.3014891285095" height="37.3014891285095" width="46.37947195964351"><g><svg xmlns="http://www.w3.org/2000/svg" xmlns:xlink="http://www.w3.org/1999/xlink" version="1.1" x="0" y="0" viewBox="0 9.786 100.00034525290006 80.42699999999999" enable-background="new 0 0 100 100" xml:space="preserve" width="46.37947195964351" height="37.3014891285095" class="icon-cg-0" data-fill-palette-color="quaternary" id="cg-0"><path d="M49.942 52.994c13.552-0.488 27.103-0.977 40.653-1.465-2.527-4.177-3.159-7.831-7.989-8.461-7.229-0.94-14.458-1.883-21.688-2.826-14.023-1.827-28.05-3.654-42.075-5.48C20.101 36.792 39.724 53.361 49.942 52.994z" fill="#ffffff" data-fill-palette-color="quaternary"></path><path d="M0 9.786c4.391 7.257 26.615 23.072 32.953 23.886 17.33 2.231 34.657 4.46 51.986 6.688-3.393-5.607-4.18-9.35-10.312-10.959-8.904-2.341-17.812-4.683-26.717-7.023C31.94 18.182 15.97 13.984 0 9.786z" fill="#ffffff" data-fill-palette-color="quaternary"></path><path d="M63.108 66.207c10.413-2.219 20.826-4.439 31.241-6.66-2.028-3.346-2.034-5.359-5.827-5.189-6.158 0.273-12.314 0.549-18.471 0.822-11.343 0.506-22.686 1.014-34.028 1.518C37.298 58.064 54.94 67.947 63.108 66.207z" fill="#ffffff" data-fill-palette-color="quaternary"></path><path d="M87.682 90.213c5.725-3.719 7.262-7.721 10.519-13.807 3.651-6.824 1.257-7.844-2.821-14.596-0.417-0.688-5.842 0.232-6.453 0.904-0.745 0.818-0.248 5.455-0.294 6.496C88.315 76.211 87.998 83.213 87.682 90.213z" fill="#ffffff" data-fill-palette-color="quaternary"></path><path d="M86.35 63.447c-3.795 0.809-8.604 0.191-9.572 4.229-1.373 5.736-2.746 11.475-4.12 17.211C81.904 82.678 86.028 71.582 86.35 63.447z" fill="#ffffff" data-fill-palette-color="quaternary"></path><path d="M74.666 66.121c-9.148 1.953-8.956 4.611-12.879 13.18C68.007 78.711 73.811 71.941 74.666 66.121z" fill="#ffffff" data-fill-palette-color="quaternary"></path></svg></g></svg></g></svg></g></svg></g><g></g></svg></g><defs></defs></svg><rect width="395.52" height="146.4363029790348" fill="none" stroke="none" visibility="hidden"></rect></g></svg></g></svg>